Coordinates
version=1
nRows=14
nColumns=42
inDegrees=yes

Units are S.I. units (second, meters, Newtons, ...)
If the header above contains a line with 'inDegrees', this indicates whether rotational values are in degrees (yes) or radians (no).

endheader
time	pelvis_tilt	pelvis_list	pelvis_rotation	pelvis_tx	pelvis_ty	pelvis_tz	hip_flexion_r	hip_adduction_r	hip_rotation_r	knee_angle_r	knee_adduction_r	knee_angle_r_beta	ankle_angle_r	subtalar_angle_r	mtp_angle_r	hip_flexion_l	hip_adduction_l	hip_rotation_l	knee_angle_l	knee_adduction_l	knee_angle_l_beta	ankle_angle_l	subtalar_angle_l	mtp_angle_l	lumbar_extension	lumbar_bending	lumbar_rotation	arm_flex_r	arm_add_r	arm_rot_r	elbow_flex_r	pro_sup_r	wrist_flex_r	wrist_dev_r	arm_flex_l	arm_add_l	arm_rot_l	elbow_flex_l	pro_sup_l	wrist_flex_l	wrist_dev_l
      1.75000000	     10.81456188	      1.96239848	     -1.53737983	     -0.46350569	      0.90945879	      0.19792678	     18.79073261	     -3.63883657	     -1.53185084	     57.24635424	      1.37585651	      0.99913737	      7.36550940	     -6.46997615	     -7.55540808	     -6.01316462	      7.86283302	    -11.87408110	     21.22191684	     -2.64525179	      0.37039232	     22.06414086	     17.93248676	     -7.55540808	    -24.17100373	      0.61717864	     -4.32567728	      1.20541527	     -8.59777614	    -22.34735827	     29.97582336	     90.00000001	      0.00000000	      0.00000000	     -1.90597242	     -8.32152473	    -21.16672219	     38.52467599	     90.00000001	      0.00000000	      0.00000000
      1.76000000	     10.66978688	      1.84769635	     -1.29705889	     -0.45631241	      0.90908674	      0.19781048	     19.38937873	     -3.50973072	     -1.38273251	     54.35076521	      1.73656576	      0.94859980	      7.94030905	     -5.12872670	     -7.55361224	     -6.48878880	      7.74834316	    -11.68130134	     21.05149628	     -2.69303877	      0.36741792	     22.49092448	     18.04841092	     -7.55361224	    -24.14773255	      0.87500882	     -4.61610601	      0.78073725	     -8.59017607	    -22.44373873	     30.29960429	     90.00000001	      0.00000000	      0.00000000	     -1.66697731	     -8.45215614	    -20.84183078	     38.50752139	     90.00000001	      0.00000000	      0.00000000
      1.77000000	     10.60289083	      1.73785619	     -1.04833869	     -0.44888974	      0.90875454	      0.19776034	     19.76760844	     -3.37839127	     -1.74719406	     51.26127079	      1.68608494	      0.89467795	      8.68552094	     -3.12842241	     -7.55147307	     -7.13358165	      7.62699555	    -11.59902912	     20.72922624	     -2.75779131	      0.36179325	     22.82544621	     18.50503162	     -7.55147307	    -24.18803889	      1.10973718	     -4.84996242	      0.34653542	     -8.56782405	    -22.61686896	     30.60514577	     90.00000001	      0.00000000	      0.00000000	     -1.43987872	     -8.60290548	    -20.44156506	     38.55140513	     90.00000001	      0.00000000	      0.00000000
      1.78000000	     10.09235338	      2.05293719	     -0.93023549	     -0.44159572	      0.90714919	      0.19786200	     21.04412534	     -3.76026348	     -1.81031556	     48.89957487	      1.80664006	      0.85345858	      8.76982958	     -2.68932942	     -7.55081425	     -7.09420981	      7.93395935	    -11.69973123	     20.72718872	     -2.77712352	      0.36175769	     22.91198257	     18.42589457	     -7.55081425	    -23.68813508	      0.80200712	     -5.10734961	     -0.18756106	     -8.44751046	    -22.63234306	     30.72739121	     90.00000001	      0.00000000	      0.00000000	     -1.32826765	     -8.72411285	    -20.35447785	     38.75845551	     90.00000001	      0.00000000	      0.00000000
      1.79000000	     10.41886385	      1.63065584	     -0.52141247	     -0.43361820	      0.90746497	      0.19766679	     20.42975545	     -3.36833146	     -2.70327662	     45.09837365	      1.64333742	      0.78711511	     10.22201293	      1.56556239	     -7.54660660	     -8.29657269	      7.46744572	    -11.69626861	     20.26152804	     -3.02724049	      0.35363038	     23.64132273	     19.79186516	     -7.54660660	    -24.13408011	      1.46823432	     -5.36345140	     -0.57468181	     -8.45886329	    -23.08895480	     31.03881821	     90.00000001	      0.00000000	      0.00000000	     -1.05526206	     -8.80935793	    -19.89089965	     38.59087146	     90.00000001	      0.00000000	      0.00000000
      1.80000000	     10.18386073	      1.64391747	     -0.34535853	     -0.42618213	      0.90636048	      0.19783067	     20.89931896	     -3.49382025	     -2.48517234	     42.14804955	      2.26292283	      0.73562224	     10.54780562	      2.49338673	     -7.54556055	     -8.66076659	      7.46977114	    -11.58775881	     20.13836142	     -3.11068205	      0.35148071	     24.03791659	     19.90071397	     -7.54556055	    -23.96731901	      1.52449080	     -5.49304614	     -1.01906627	     -8.40246925	    -23.20271097	     31.16356714	     90.00000001	      0.00000000	      0.00000000	     -0.79847010	     -8.87207831	    -19.75131508	     38.57187900	     90.00000001	      0.00000000	      0.00000000
      1.81000000	      9.96340859	      1.65407098	     -0.15437668	     -0.41870311	      0.90521263	      0.19808217	     21.30068579	     -3.54808701	     -2.51769130	     39.26137686	      2.58537323	      0.68524030	     10.86994131	      3.54287551	     -7.54465942	     -9.06198076	      7.43965483	    -11.45001795	     19.97261407	     -3.16440584	      0.34858788	     24.38762141	     20.15503628	     -7.54465942	    -23.82911294	      1.57695773	     -5.63234994	     -1.42967326	     -8.32288400	    -23.37326196	     31.26909706	     90.00000001	      0.00000000	      0.00000000	     -0.56053128	     -8.95020794	    -19.63856335	     38.55199609	     90.00000001	      0.00000000	      0.00000000
      1.82000000	     10.18949633	      1.46596107	      0.06645174	     -0.41054097	      0.90486479	      0.19862301	     20.91718876	     -3.40875332	     -3.53669689	     36.20790051	      2.47913175	      0.63194708	     11.39566526	      5.72733860	     -7.54292903	    -10.13529247	      6.90367353	    -11.55418649	     19.65604281	     -2.78475758	      0.34306266	     24.80873946	     20.99242984	     -7.54292903	    -24.11065053	      1.82817414	     -5.66817694	     -1.81131627	     -8.20083581	    -23.87515759	     31.29720661	     90.00000001	      0.00000000	      0.00000000	     -0.26734353	     -8.97386523	    -19.56893297	     38.44328685	     90.00000001	      0.00000000	      0.00000000
      1.83000000	     10.12595479	      1.43454758	      0.30074768	     -0.40271688	      0.90379781	      0.19896066	     20.99921724	     -3.58354748	     -4.28822594	     33.66073359	      2.77671142	      0.58749063	     11.76531337	      7.39310005	     -7.54134429	    -10.69547588	      6.71057766	    -11.47045676	     19.58579078	     -2.71747705	      0.34183654	     25.26000418	     21.43955590	     -7.54134429	    -24.10420117	      1.93011766	     -5.75620669	     -2.16166804	     -8.07623972	    -24.23254186	     31.23586490	     90.00000001	      0.00000000	      0.00000000	      0.02057377	     -8.99825393	    -19.55444421	     38.36964352	     90.00000001	      0.00000000	      0.00000000
      1.84000000	     10.12054347	      1.40188743	      0.55857786	     -0.39463961	      0.90276112	      0.19922212	     20.97427164	     -3.80691329	     -5.47104998	     31.39879172	      2.96487146	      0.54801230	     12.09248376	      9.29262017	     -7.53869725	    -11.32693571	      6.51534587	    -11.35281222	     19.53667811	     -2.65674765	      0.34097936	     25.68000946	     21.96210249	     -7.53869725	    -24.12278982	      2.04589385	     -5.86699880	     -2.48728569	     -7.95454267	    -24.74315858	     31.12248303	     90.00000001	      0.00000000	      0.00000000	      0.25448659	     -8.97287903	    -19.60062434	     38.28685102	     90.00000001	      0.00000000	      0.00000000
      1.85000000	     10.08972950	      1.39593397	      0.76924031	     -0.38670382	      0.90160626	      0.19966509	     20.92361115	     -4.09575271	     -6.16409871	     29.40374944	      3.58447692	      0.51319224	     12.19742814	      9.94392027	     -7.53778796	    -11.89652903	      6.35602191	    -11.11722078	     19.54245641	     -2.56663005	      0.34108021	     26.13900863	     22.07948410	     -7.53778796	    -24.13497143	      2.10095968	     -5.90210720	     -2.79001295	     -7.85139941	    -24.96663280	     30.91409007	     90.00000001	      0.00000000	      0.00000000	      0.56196473	     -8.96314228	    -19.61625487	     38.12928569	     90.00000001	      0.00000000	      0.00000000
      1.86000000	      9.82086352	      1.57651447	      0.75594177	     -0.37868635	      0.89971944	      0.20055297	     21.54110263	     -4.47043784	     -6.94303114	     28.47655375	      3.93875668	      0.49700962	     12.24432988	      9.92396603	     -7.53741758	    -12.15080829	      6.40101158	    -11.19641486	     19.65143079	     -2.45571947	      0.34298217	     26.21878506	     21.96522289	     -7.53741758	    -23.86163403	      1.83708004	     -5.74971470	     -3.21973650	     -7.74175924	    -25.00608217	     30.78572144	     90.00000001	      0.00000000	      0.00000000	      0.70959907	     -8.97094469	    -19.60888713	     38.24113402	     90.00000001	      0.00000000	      0.00000000
      1.87000000	     10.27114047	      1.18762871	      1.24016242	     -0.37010877	      0.89960093	      0.20075094	     20.34640527	     -4.32021749	     -8.46047178	     26.30029133	      4.30516655	      0.45902668	     12.08874294	     11.22894795	     -7.53646285	    -13.40127390	      5.73968886	    -10.78354082	     19.44399033	     -2.37411889	      0.33936165	     26.86865784	     22.60192400	     -7.53646285	    -24.34401491	      2.44382983	     -5.93534761	     -3.27115768	     -7.62095573	    -25.86410729	     30.37018805	     90.00000001	      0.00000000	      0.00000000	      1.06698117	     -8.82493407	    -19.87666625	     37.88207301	     90.00000001	      0.00000000	      0.00000000
      1.88000000	     10.30070467	      1.20992015	      1.46688788	     -0.36173556	      0.89830589	      0.20120567	     20.21741595	     -4.64384263	     -9.55818879	     25.56782982	      4.80052595	      0.44624281	     12.11953634	     11.36584377	     -7.53602047	    -14.02228467	      5.68219875	    -10.64890119	     19.49162958	     -2.53014757	      0.34019311	     27.32311663	     22.78569143	     -7.53602047	    -24.36993275	      2.48172648	     -5.98401798	     -3.47809934	     -7.53530256	    -26.14571700	     29.99381398	     90.00000001	      0.00000000	      0.00000000	      1.29612470	     -8.77490299	    -19.94477189	     37.71783731	     90.00000001	      0.00000000	      0.00000000
